<svg xmlns="http://www.w3.org/2000/svg" width="64" height="64" viewBox="0 0 64 64">
  <rect width="64" height="64" rx="12" fill="#0A2540"/>
  <path d="M16 40 L32 16 L48 40" fill="none" stroke="#F39C12" stroke-width="6" stroke-linecap="round" stroke-linejoin="round"/>
</svg>
<svg xmlns="http://www.w3.org/2000/svg" width="48" height="48" viewBox="0 0 48 48">
  <circle cx="24" cy="24" r="22" fill="#0A2540" opacity="0.08"/>
  <path d="M10 32 L22 20 L28 26 L38 16" stroke="#0A2540" stroke-width="3" fill="none"/>
  <circle cx="22" cy="20" r="2" fill="#F39C12"/>
  <circle cx="28" cy="26" r="2" fill="#F39C12"/>
  <circle cx="38" cy="16" r="2" fill="#F39C12"/>
</svg>
<svg xmlns="http://www.w3.org/2000/svg" width="48" height="48" viewBox="0 0 48 48">
  <rect x="8" y="10" width="32" height="24" rx="4" fill="#0A2540" opacity="0.08"/>
  <path d="M12 18 H36" stroke="#0A2540" stroke-width="3"/>
  <path d="M12 24 H28" stroke="#0A2540" stroke-width="3"/>
  <path d="M12 30 H20" stroke="#0A2540" stroke-width="3"/>
  <circle cx="36" cy="30" r="3" fill="#F39C12"/>
</svg>
<svg xmlns="http://www.w3.org/2000/svg" width="48" height="48" viewBox="0 0 48 48">
  <path d="M14 12 L6 24 L14 36" stroke="#0A2540" stroke-width="3" fill="none"/>
  <path d="M34 12 L42 24 L34 36" stroke="#0A2540" stroke-width="3" fill="none"/>
  <rect x="20" y="10" width="8" height="28" fill="#F39C12" rx="2"/>
</svg>
<svg xmlns="http://www.w3.org/2000/svg" width="48" height="48" viewBox="0 0 48 48">
  <rect x="8" y="10" width="10" height="28" fill="#0A2540" opacity="0.25"/>
  <rect x="20" y="18" width="10" height="20" fill="#0A2540" opacity="0.5"/>
  <rect x="32" y="24" width="10" height="14" fill="#0A2540" />
  <circle cx="37" cy="18" r="3" fill="#F39C12"/>
</svg>
<svg xmlns="http://www.w3.org/2000/svg" width="48" height="48" viewBox="0 0 48 48">
  <path d="M16 28a8 8 0 1116 0h2a6 6 0 010 12H14a6 6 0 010-12h2z" fill="#0A2540" opacity="0.2"/>
  <path d="M22 30h4v8h-4z" fill="#F39C12"/>
</svg>
<svg xmlns="http://www.w3.org/2000/svg" width="48" height="48" viewBox="0 0 48 48">
  <path d="M24 6l14 6v10c0 9-6 16-14 20-8-4-14-11-14-20V12l14-6z" fill="#0A2540" opacity="0.12"/>
  <path d="M18 24l4 4 8-8" stroke="#F39C12" stroke-width="3" fill="none"/>
</svg>
<svg xmlns="http://www.w3.org/2000/svg" viewBox="0 0 800 400">
  <rect width="800" height="400" rx="24" fill="#F5F7FB"/>
  <circle cx="120" cy="120" r="60" fill="#0A2540" opacity="0.08"/>
  <circle cx="680" cy="180" r="90" fill="#0A2540" opacity="0.05"/>
  <rect x="200" y="80" width="400" height="240" rx="16" fill="#fff" stroke="#E5E7EB"/>
  <rect x="230" y="110" width="200" height="16" rx="8" fill="#0A2540" opacity="0.2"/>
  <rect x="230" y="140" width="340" height="10" rx="5" fill="#0A2540" opacity="0.12"/>
  <rect x="230" y="160" width="340" height="10" rx="5" fill="#0A2540" opacity="0.12"/>
  <rect x="230" y="180" width="280" height="10" rx="5" fill="#0A2540" opacity="0.12"/>
  <rect x="230" y="220" width="120" height="36" rx="8" fill="#F39C12"/>
</svg>
<svg xmlns="http://www.w3.org/2000/svg" viewBox="0 0 800 400">
  <rect width="800" height="400" fill="#F3F4F6"/>
  <rect x="100" y="60" width="200" height="280" fill="#0A2540" opacity="0.2"/>
  <rect x="320" y="40" width="160" height="320" fill="#0A2540" opacity="0.12"/>
  <rect x="500" y="100" width="200" height="260" fill="#0A2540" opacity="0.18"/>
</svg>
<svg xmlns="http://www.w3.org/2000/svg" viewBox="0 0 200 200">
  <rect width="200" height="200" rx="16" fill="#F3F4F6"/>
  <circle cx="100" cy="70" r="40" fill="#0A2540" opacity="0.2"/>
  <rect x="50" y="120" width="100" height="50" rx="10" fill="#0A2540" opacity="0.15"/>
  <text x="100" y="185" font-size="14" text-anchor="middle" fill="#9CA3AF">Member N</text>
</svg>
<svg xmlns="http://www.w3.org/2000/svg" viewBox="0 0 600 300">
  <rect width="600" height="300" fill="#F3F4F6"/>
  <rect x="40" y="40" width="520" height="220" rx="12" fill="#fff" stroke="#E5E7EB"/>
  <rect x="70" y="70" width="180" height="16" rx="8" fill="#0A2540" opacity="0.25"/>
  <rect x="70" y="100" width="460" height="10" rx="5" fill="#0A2540" opacity="0.12"/>
  <rect x="70" y="120" width="460" height="10" rx="5" fill="#0A2540" opacity="0.12"/>
  <rect x="70" y="140" width="380" height="10" rx="5" fill="#0A2540" opacity="0.12"/>
  <rect x="70" y="180" width="140" height="36" rx="8" fill="#F39C12"/>
  <text x="560" y="280" font-size="12" text-anchor="end" fill="#9CA3AF">Post N</text>
</svg>
<svg xmlns="http://www.w3.org/2000/svg" viewBox="0 0 1200 500">
  <rect width="1200" height="500" fill="#F9FAFB"/>
  <circle cx="200" cy="180" r="120" fill="#0A2540" opacity="0.06"/>
  <circle cx="1000" cy="280" r="160" fill="#0A2540" opacity="0.05"/>
  <rect x="260" y="120" width="680" height="260" rx="20" fill="#fff" stroke="#E5E7EB"/>
</svg>

